# This file uses centimeters as units for non-parametric coordinates.

mtllib Asteroid_2.mtl
g default
v 2.552867 -0.590574 -1.756013
v 3.547450 -0.653369 -1.781195
v 2.542642 0.193245 -1.437849
v 3.546664 0.305825 -1.396543
v 2.543277 0.477289 -2.250160
v 3.546664 0.618787 -2.232673
v 2.531393 -0.330821 -2.613481
v 3.547450 -0.315314 -2.607263
v 3.009205 0.207516 -1.289286
v 3.014194 0.620270 -2.296486
v 3.012039 -0.284611 -2.668191
v 3.016871 -0.652435 -1.707580
v 2.998466 0.634289 -1.721331
v 2.456719 0.447933 -1.808908
v 2.480033 -0.568433 -2.227951
v 3.011794 -0.606030 -2.243028
v 3.601338 -0.614540 -2.246441
v 3.600605 0.621378 -1.752473
v 3.029010 -0.350346 -1.204075
v 2.435557 -0.198484 -1.525538
v 2.243187 -0.042390 -1.995174
v 2.430725 0.154299 -2.483348
v 3.012307 0.260163 -2.720843
v 3.683676 0.184625 -2.480019
v 3.891461 -0.031715 -1.997728
v 3.683676 -0.191988 -1.522933
v 3.405930 0.286067 -2.724022
v 3.649816 -0.120070 -2.595638
v 3.342237 -0.310610 -2.672048
v 3.332541 -0.650204 -2.260743
v 3.342237 -0.694146 -1.730876
v 3.397757 -0.269532 -1.376153
v 3.013241 0.610571 -2.054605
v 2.714834 0.557987 -2.288395
v 2.493410 0.469722 -2.081646
v 2.478130 -0.475548 -2.496045
v 2.324296 0.070432 -2.271210
v 3.010989 -0.476481 -2.496419
v 3.601338 -0.477962 -2.497013
v 3.785236 0.102750 -2.266015
v 3.599570 0.664871 -2.038718
v 3.341942 0.658968 -2.283231
v 3.012817 -0.017882 -1.269596
v 2.459570 0.046870 -1.433717
v 2.234494 0.373055 -1.859366
v 2.459570 0.370239 -2.363685
v 3.013306 0.558125 -2.604995
v 3.661379 0.490333 -2.377256
v 3.923173 0.487650 -1.850633
v 3.693500 0.115884 -1.327286
v 2.725247 -0.643996 -1.710765
v 3.018411 -0.492630 -1.508038
v 2.666752 -0.295322 -1.279311
v 2.469983 -0.453455 -1.634355
v 2.704182 0.210647 -1.303159
v 3.002090 0.448279 -1.477355
v 2.721358 0.471320 -1.805056
v 2.489554 0.327291 -1.561726
v 2.679721 0.216264 -2.596901
v 3.015190 -0.026219 -2.700029
v 2.705921 -0.330933 -2.680197
v 2.450657 -0.140393 -2.603788
v 2.714637 -0.619466 -2.248416
v 3.014210 -0.677458 -1.966330
v 2.497457 -0.621307 -1.943812
v 3.601338 -0.694193 -1.973040
v 3.746052 -0.363281 -2.147114
v 3.782188 -0.103129 -1.735709
v 3.649816 -0.503605 -1.654466
v 2.154519 -0.147320 -1.662398
v 2.346949 -0.330853 -2.132678
v 3.341942 0.265269 -1.346135
v 3.599570 0.483959 -1.500582
v 3.330742 0.609590 -1.755999
v 2.702321 -0.478601 -1.528689
v 2.682271 0.486931 -1.446767
v 2.689437 -0.063827 -2.688834
v 2.724300 -0.677534 -1.966360
v 3.821302 -0.518145 -1.871245
v 2.368327 -0.403733 -1.856561
v 3.331362 0.463714 -1.508700
v 3.371323 -0.047247 -2.682185
v 3.332541 -0.726125 -1.985846
v 3.371323 -0.509003 -1.540880
v 2.721602 0.554868 -2.059278
v 2.355443 -0.236237 -2.400078
v 2.711416 -0.510039 -2.509877
v 3.332541 -0.511648 -2.510522
v 3.811962 -0.276542 -2.453977
v 3.331216 0.696819 -2.027863
v 2.690375 -0.009921 -1.315147
v 2.365629 0.138695 -1.639038
v 2.365629 0.306997 -2.158678
v 2.694530 0.434328 -2.465512
v 3.371323 0.489092 -2.467104
v 3.807218 0.510324 -2.204531
v 3.892463 0.292996 -1.384562
v 3.370875 0.035840 -1.127373
vt 0.375000 0.000000
vt 0.375000 1.000000
vt 0.625000 0.000000
vt 0.625000 1.000000
vt 0.375000 0.250000
vt 0.625000 0.250000
vt 0.375000 0.500000
vt 0.125000 0.250000
vt 0.625000 0.500000
vt 0.875000 0.250000
vt 0.375000 0.750000
vt 0.125000 0.000000
vt 0.625000 0.750000
vt 0.875000 0.000000
vt 0.500000 0.250000
vt 0.500000 0.500000
vt 0.500000 0.750000
vt 0.500000 0.000000
vt 0.500000 1.000000
vt 0.500000 0.375000
vt 0.375000 0.375000
vt 0.250000 0.250000
vt 0.375000 0.875000
vt 0.250000 0.000000
vt 0.500000 0.875000
vt 0.750000 0.000000
vt 0.625000 0.875000
vt 0.625000 0.375000
vt 0.750000 0.250000
vt 0.500000 0.125000
vt 0.375000 0.125000
vt 0.250000 0.125000
vt 0.375000 0.625000
vt 0.125000 0.125000
vt 0.500000 0.625000
vt 0.625000 0.625000
vt 0.875000 0.125000
vt 0.750000 0.125000
vt 0.625000 0.125000
vt 0.437500 0.062500
vt 0.437500 0.312500
vt 0.437500 0.687500
vt 0.437500 0.937500
vt 0.687500 0.062500
vt 0.312500 0.062500
vt 0.562500 0.312500
vt 0.562500 0.687500
vt 0.562500 0.937500
vt 0.562500 0.062500
vt 0.437500 0.437500
vt 0.187500 0.062500
vt 0.437500 0.812500
vt 0.562500 0.812500
vt 0.812500 0.062500
vt 0.562500 0.437500
vt 0.437500 0.187500
vt 0.312500 0.187500
vt 0.187500 0.187500
vt 0.437500 0.562500
vt 0.562500 0.562500
vt 0.812500 0.187500
vt 0.687500 0.187500
vt 0.562500 0.187500
vt 0.437500 0.000000
vt 0.437500 1.000000
vt 0.500000 0.062500
vt 0.437500 0.125000
vt 0.375000 0.062500
vt 0.437500 0.250000
vt 0.500000 0.312500
vt 0.437500 0.375000
vt 0.375000 0.312500
vt 0.312500 0.250000
vt 0.437500 0.625000
vt 0.500000 0.687500
vt 0.437500 0.750000
vt 0.375000 0.687500
vt 0.125000 0.062500
vt 0.437500 0.875000
vt 0.500000 0.937500
vt 0.375000 0.937500
vt 0.312500 0.000000
vt 0.687500 0.000000
vt 0.625000 0.937500
vt 0.750000 0.062500
vt 0.687500 0.125000
vt 0.625000 0.062500
vt 0.312500 0.125000
vt 0.250000 0.062500
vt 0.562500 0.250000
vt 0.625000 0.312500
vt 0.687500 0.250000
vt 0.562500 0.375000
vt 0.562500 0.625000
vt 0.625000 0.687500
vt 0.875000 0.062500
vt 0.562500 0.750000
vt 0.562500 0.875000
vt 0.562500 1.000000
vt 0.562500 0.000000
vt 0.562500 0.125000
vt 0.500000 0.437500
vt 0.437500 0.500000
vt 0.375000 0.437500
vt 0.187500 0.250000
vt 0.187500 0.000000
vt 0.375000 0.812500
vt 0.187500 0.125000
vt 0.500000 0.812500
vt 0.625000 0.812500
vt 0.812500 0.000000
vt 0.812500 0.125000
vt 0.625000 0.437500
vt 0.812500 0.250000
vt 0.562500 0.500000
vt 0.500000 0.187500
vt 0.375000 0.187500
vt 0.250000 0.187500
vt 0.125000 0.187500
vt 0.375000 0.562500
vt 0.500000 0.562500
vt 0.625000 0.562500
vt 0.875000 0.187500
vt 0.750000 0.187500
vt 0.625000 0.187500
vn -0.461892 -0.804521 0.373365
vn -0.138484 -0.901700 0.409583
vn -0.280272 -0.765875 0.578691
vn -0.620017 -0.610257 0.493118
vn -0.054423 -0.909272 0.412630
vn 0.009604 -0.798722 0.601624
vn 0.014524 -0.498822 0.866583
vn -0.417039 -0.371077 0.829687
vn -0.662740 -0.296255 0.687756
vn -0.637910 0.262766 0.723896
vn -0.212372 0.319244 0.923570
vn -0.297649 0.788214 0.538631
vn -0.607817 0.636583 0.474679
vn -0.044981 0.443446 0.895172
vn -0.013512 0.767742 0.640617
vn -0.152391 0.951665 0.266666
vn -0.300389 0.938531 0.170075
vn -0.488691 0.847143 0.208636
vn -0.732106 0.291008 -0.615902
vn -0.385356 0.321237 -0.865048
vn -0.241044 0.087203 -0.966589
vn -0.701715 0.065227 -0.709466
vn -0.103792 0.274507 -0.955967
vn -0.042611 -0.036558 -0.998423
vn 0.013939 -0.369040 -0.929309
vn -0.060975 -0.374069 -0.925394
vn -0.456275 -0.325485 -0.828174
vn -0.643416 -0.740090 -0.195659
vn -0.068530 -0.951238 -0.300750
vn -0.100311 -0.993272 -0.057863
vn -0.624060 -0.781301 0.010872
vn -0.048601 -0.936762 -0.346575
vn -0.073908 -0.994575 -0.073204
vn 0.316695 -0.843800 0.433250
vn 0.510126 -0.856431 -0.079354
vn 0.930145 -0.347729 0.117958
vn 0.602658 -0.502839 0.619643
vn 0.521306 -0.787550 -0.328641
vn 0.925004 -0.348810 -0.150661
vn 0.990221 -0.120716 -0.069925
vn 0.939139 -0.249873 0.235757
vn 0.671601 -0.415036 0.613757
vn -0.839152 -0.533107 0.107802
vn -0.923745 -0.344796 -0.166768
vn -0.956869 -0.152290 0.247405
vn -0.989601 -0.049295 -0.135130
vn 0.009336 0.569431 0.821986
vn 0.016468 0.750700 0.660438
vn 0.096891 0.559150 0.823385
vn 0.186010 0.768042 0.612790
vn 0.277481 0.913911 0.296260
vn -0.013481 0.937153 0.348658
vn 0.206426 -0.055690 -0.976876
vn 0.069036 -0.349970 -0.934214
vn 0.334878 0.294752 -0.894974
vn 0.709877 0.236883 -0.663296
vn 0.623535 0.005076 -0.781779
vn 0.317798 -0.310807 -0.895770
vn -0.023536 -0.995843 -0.087996
vn 0.044873 -0.900537 0.432457
vn -0.016095 -0.927903 -0.372474
vn 0.352039 -0.511919 0.783586
vn 0.246732 -0.688643 0.681831
vn -0.289074 0.954129 0.077932
vn -0.446948 0.893908 -0.034152
vn -0.207830 0.977206 0.043308
vn -0.140071 0.965477 -0.219621
vn -0.330160 0.923070 -0.197325
vn -0.500437 0.833450 -0.234360
vn -0.653011 -0.623118 -0.430465
vn -0.939476 -0.166324 -0.299535
vn -0.946209 0.086579 -0.311756
vn -0.020583 -0.827493 -0.561099
vn -0.007152 -0.796699 -0.604334
vn -0.000639 -0.781142 -0.624353
vn 0.515674 -0.665715 -0.539355
vn 0.928853 -0.173838 -0.327128
vn 0.936047 0.043843 -0.349134
vn -0.043833 0.998147 0.042216
vn 0.320525 0.946591 -0.035053
vn 0.254225 0.874568 -0.412918
vn 0.071207 0.944286 -0.321330
vn -0.329172 0.080435 0.940838
vn -0.658187 0.114577 0.744084
vn -0.080523 0.074613 0.993956
vn -0.778625 0.293996 0.554355
vn -0.912895 0.406052 0.041776
vn -0.838544 0.455909 -0.298313
vn -0.686817 0.536398 -0.490468
vn -0.433738 0.627669 -0.646454
vn -0.104676 0.736407 -0.668392
vn 0.265234 0.699782 -0.663292
vn 0.592210 0.544331 -0.594130
vn 0.951830 0.301169 0.057598
vn 0.854898 0.418581 -0.306494
vn 0.897634 0.157197 0.411756
vn 0.551871 -0.184836 0.813188
vn 0.227255 -0.026294 0.973480
s 1
g pCube7
usemtl lambert7SG
f 1/1/1 51/64/2 75/40/3 54/68/4
f 51/64/2 12/18/5 52/66/6 75/40/3
f 75/40/3 52/66/6 19/30/7 53/67/8
f 54/68/4 75/40/3 53/67/8 20/31/9
f 3/5/10 55/69/11 76/41/12 58/72/13
f 55/69/11 9/15/14 56/70/15 76/41/12
f 76/41/12 56/70/15 13/20/16 57/71/17
f 58/72/13 76/41/12 57/71/17 14/21/18
f 22/33/19 59/74/20 77/42/21 62/77/22
f 59/74/20 23/35/23 60/75/24 77/42/21
f 77/42/21 60/75/24 11/17/25 61/76/26
f 62/77/22 77/42/21 61/76/26 7/11/27
f 15/23/28 63/79/29 78/43/30 65/81/31
f 63/79/29 16/25/32 64/80/33 78/43/30
f 78/43/30 64/80/33 12/19/5 51/65/2
f 65/81/31 78/43/30 51/65/2 1/2/1
f 2/3/34 66/83/35 79/44/36 69/87/37
f 66/83/35 17/26/38 67/85/39 79/44/36
f 79/44/36 67/85/39 25/38/40 68/86/41
f 69/87/37 79/44/36 68/86/41 26/39/42
f 15/24/28 65/82/31 80/45/43 71/89/44
f 65/82/31 1/1/1 54/68/4 80/45/43
f 80/45/43 54/68/4 20/31/9 70/88/45
f 71/89/44 80/45/43 70/88/45 21/32/46
f 9/15/14 72/90/47 81/46/48 56/70/15
f 72/90/47 4/6/49 73/91/50 81/46/48
f 81/46/48 73/91/50 18/28/51 74/93/52
f 56/70/15 81/46/48 74/93/52 13/20/16
f 11/17/25 60/75/24 82/47/53 29/97/54
f 60/75/24 23/35/23 27/94/55 82/47/53
f 82/47/53 27/94/55 24/36/56 28/95/57
f 29/97/54 82/47/53 28/95/57 8/13/58
f 12/19/5 64/80/33 83/48/59 31/99/60
f 64/80/33 16/25/32 30/98/61 83/48/59
f 83/48/59 30/98/61 17/27/38 66/84/35
f 31/99/60 83/48/59 66/84/35 2/4/34
f 26/39/42 32/101/62 84/49/63 69/87/37
f 32/101/62 19/30/7 52/66/6 84/49/63
f 84/49/63 52/66/6 12/18/5 31/100/60
f 69/87/37 84/49/63 31/100/60 2/3/34
f 14/21/18 57/71/17 85/50/64 35/104/65
f 57/71/17 13/20/16 33/102/66 85/50/64
f 85/50/64 33/102/66 10/16/67 34/103/68
f 35/104/65 85/50/64 34/103/68 5/7/69
f 7/12/27 36/106/70 86/51/71 62/78/22
f 36/106/70 15/24/28 71/89/44 86/51/71
f 86/51/71 71/89/44 21/32/46 37/108/72
f 62/78/22 86/51/71 37/108/72 22/34/19
f 7/11/27 61/76/26 87/52/73 36/107/70
f 61/76/26 11/17/25 38/109/74 87/52/73
f 87/52/73 38/109/74 16/25/32 63/79/29
f 36/107/70 87/52/73 63/79/29 15/23/28
f 17/27/38 30/98/61 88/53/75 39/110/76
f 30/98/61 16/25/32 38/109/74 88/53/75
f 88/53/75 38/109/74 11/17/25 29/97/54
f 39/110/76 88/53/75 29/97/54 8/13/58
f 25/38/40 67/85/39 89/54/77 40/112/78
f 67/85/39 17/26/38 39/111/76 89/54/77
f 89/54/77 39/111/76 8/14/58 28/96/57
f 40/112/78 89/54/77 28/96/57 24/37/56
f 13/20/16 74/93/52 90/55/79 33/102/66
f 74/93/52 18/28/51 41/113/80 90/55/79
f 90/55/79 41/113/80 6/9/81 42/115/82
f 33/102/66 90/55/79 42/115/82 10/16/67
f 20/31/9 53/67/8 91/56/83 44/117/84
f 53/67/8 19/30/7 43/116/85 91/56/83
f 91/56/83 43/116/85 9/15/14 55/69/11
f 44/117/84 91/56/83 55/69/11 3/5/10
f 21/32/46 70/88/45 92/57/86 45/118/87
f 70/88/45 20/31/9 44/117/84 92/57/86
f 92/57/86 44/117/84 3/5/10 58/73/13
f 45/118/87 92/57/86 58/73/13 14/22/18
f 22/34/19 37/108/72 93/58/88 46/119/89
f 37/108/72 21/32/46 45/118/87 93/58/88
f 93/58/88 45/118/87 14/22/18 35/105/65
f 46/119/89 93/58/88 35/105/65 5/8/69
f 5/7/69 34/103/68 94/59/90 46/120/89
f 34/103/68 10/16/67 47/121/91 94/59/90
f 94/59/90 47/121/91 23/35/23 59/74/20
f 46/120/89 94/59/90 59/74/20 22/33/19
f 24/36/56 27/94/55 95/60/92 48/122/93
f 27/94/55 23/35/23 47/121/91 95/60/92
f 95/60/92 47/121/91 10/16/67 42/115/82
f 48/122/93 95/60/92 42/115/82 6/9/81
f 18/29/51 49/124/94 96/61/95 41/114/80
f 49/124/94 25/38/40 40/112/78 96/61/95
f 96/61/95 40/112/78 24/37/56 48/123/93
f 41/114/80 96/61/95 48/123/93 6/10/81
f 26/39/42 68/86/41 97/62/96 50/125/97
f 68/86/41 25/38/40 49/124/94 97/62/96
f 97/62/96 49/124/94 18/29/51 73/92/50
f 50/125/97 97/62/96 73/92/50 4/6/49
f 9/15/14 43/116/85 98/63/98 72/90/47
f 43/116/85 19/30/7 32/101/62 98/63/98
f 98/63/98 32/101/62 26/39/42 50/125/97
f 72/90/47 98/63/98 50/125/97 4/6/49
