# This file uses centimeters as units for non-parametric coordinates.

mtllib Asteroid_6.mtl
g default
v 5.630232 0.760066 0.074920
v 4.189231 0.466270 0.080414
v 5.915136 -0.104693 0.765583
v 4.623884 -0.233004 0.377915
v 5.332895 -0.065216 0.090615
v 4.363043 -0.765379 -0.078475
v 5.711912 0.376483 -0.591183
v 4.219899 0.082468 -0.570110
v 5.849735 -0.196494 0.375377
v 5.758578 0.642208 -0.288268
v 4.076498 0.311752 -0.287346
v 4.348969 -0.545557 0.243938
v 5.972230 0.187221 0.000000
v 5.808572 0.382591 0.376523
v 4.110529 0.055041 0.375910
v 3.876682 -0.226318 0.016481
v 4.109160 -0.439248 -0.559739
v 5.892359 -0.054248 -0.376422
v 5.105283 -0.546731 0.329449
v 5.097495 -0.262707 0.896861
v 4.855701 0.425149 0.564808
v 4.865748 0.697162 0.088255
v 4.894717 0.546731 -0.329449
v 4.974458 0.256126 -0.692833
v 5.048380 -0.251571 -0.432357
v 5.017077 -0.216536 -0.054364
v 4.572137 0.092689 -0.390858
v 4.120109 0.184471 -0.463997
v 4.907946 0.422275 -0.583999
v 4.051844 -0.312234 -0.215156
v 4.269943 -0.763224 0.071279
v 5.124226 -0.642495 0.113503
v 5.734505 0.767221 -0.073112
v 5.617323 0.545890 0.137812
v 5.914014 0.453382 -0.175906
v 4.080360 0.325901 0.212100
v 4.899211 0.523392 0.265588
v 3.981831 0.085452 -0.164602
v 4.217774 -0.119683 -0.461281
v 4.991990 0.023520 -0.607809
v 5.800381 0.527100 -0.530068
v 5.856079 0.227841 -0.565438
v 5.496534 -0.147427 0.534472
v 5.622190 -0.541882 0.461994
v 5.458722 0.464309 0.606774
v 5.351863 0.790773 0.088255
v 5.380832 0.640342 -0.329449
v 5.424946 0.270405 -0.430874
v 5.534262 -0.156415 -0.430312
v 5.620367 -0.603552 -0.088255
v 4.465416 0.156590 0.430821
v 4.266713 -0.173481 0.473981
v 4.563744 -0.353154 0.665004
v 4.952923 0.100536 0.804958
v 4.443653 -0.420157 0.359853
v 4.619106 -0.706458 0.373776
v 5.088794 -0.422211 0.581659
v 4.644882 -0.799556 -0.095772
v 4.118920 -0.724804 -0.240869
v 4.561930 -0.343878 -0.430591
v 5.071018 -0.497514 -0.352745
v 4.408602 0.453120 -0.329449
v 4.335274 0.402150 -0.063274
v 4.379633 0.603552 0.088255
v 4.870643 0.671744 -0.114293
v 4.318334 -0.060059 0.155851
v 4.103600 -0.435797 0.153326
v 5.948156 0.312234 0.215156
v 5.880610 0.105917 0.570830
v 5.972946 -0.198805 0.586081
v 6.024872 -0.086144 0.164725
v 5.996304 0.062208 -0.215156
v 5.612567 -0.047797 0.334287
v 5.613138 0.123212 -0.150152
v 4.405951 -0.055912 0.772438
v 4.594989 -0.627571 0.619857
v 4.536253 -0.771499 -0.366653
v 4.384528 0.578133 -0.114293
v 4.077270 -0.326886 0.366796
v 6.000798 0.038869 0.379881
v 6.048405 -0.210269 -0.050374
v 4.475834 0.295446 -0.424506
v 4.042408 -0.619749 -0.064851
v 4.643242 -0.765355 0.114293
v 5.730402 0.505281 0.027973
v 4.413096 0.429781 0.265588
v 4.313409 0.180155 0.045492
v 4.051676 -0.045738 -0.326641
v 4.514443 -0.074804 -0.578729
v 5.945286 0.358723 -0.280493
v 5.601695 -0.416391 0.628785
v 5.515022 0.112343 0.740684
v 5.385326 0.617002 0.265588
v 5.356758 0.765355 -0.114293
v 5.402776 0.499547 -0.500035
v 5.481170 0.113613 -0.585612
v 5.584436 -0.425754 -0.265302
v 5.615472 -0.578133 0.114293
vt 0.375000 0.000000
vt 0.375000 1.000000
vt 0.625000 1.000000
vt 0.625000 0.000000
vt 0.375000 0.250000
vt 0.625000 0.250000
vt 0.125000 0.250000
vt 0.375000 0.500000
vt 0.625000 0.500000
vt 0.875000 0.250000
vt 0.125000 0.000000
vt 0.375000 0.750000
vt 0.625000 0.750000
vt 0.875000 0.000000
vt 0.250000 0.250000
vt 0.375000 0.375000
vt 0.250000 0.000000
vt 0.375000 0.875000
vt 0.625000 0.875000
vt 0.750000 0.000000
vt 0.625000 0.375000
vt 0.750000 0.250000
vt 0.250000 0.125000
vt 0.375000 0.125000
vt 0.625000 0.125000
vt 0.750000 0.125000
vt 0.625000 0.625000
vt 0.875000 0.125000
vt 0.125000 0.125000
vt 0.375000 0.625000
vt 0.500000 0.375000
vt 0.500000 0.250000
vt 0.500000 0.125000
vt 0.500000 1.000000
vt 0.500000 0.000000
vt 0.500000 0.875000
vt 0.500000 0.750000
vt 0.500000 0.625000
vt 0.500000 0.500000
vt 0.562500 0.187500
vt 0.562500 0.312500
vt 0.562500 0.562500
vt 0.562500 0.937500
vt 0.687500 0.187500
vt 0.312500 0.187500
vt 0.187500 0.187500
vt 0.562500 0.812500
vt 0.812500 0.187500
vt 0.562500 0.437500
vt 0.312500 0.062500
vt 0.562500 0.062500
vt 0.687500 0.062500
vt 0.812500 0.062500
vt 0.562500 0.687500
vt 0.187500 0.062500
vt 0.437500 0.312500
vt 0.437500 0.187500
vt 0.437500 0.062500
vt 0.437500 0.937500
vt 0.437500 0.812500
vt 0.437500 0.687500
vt 0.437500 0.562500
vt 0.437500 0.437500
vt 0.562500 0.125000
vt 0.625000 0.187500
vt 0.562500 0.250000
vt 0.500000 0.187500
vt 0.625000 0.312500
vt 0.687500 0.250000
vt 0.562500 0.375000
vt 0.500000 0.312500
vt 0.562500 0.500000
vt 0.625000 0.562500
vt 0.875000 0.187500
vt 0.562500 0.625000
vt 0.500000 0.562500
vt 0.562500 0.875000
vt 0.625000 0.937500
vt 0.687500 0.000000
vt 0.562500 1.000000
vt 0.562500 0.000000
vt 0.500000 0.937500
vt 0.687500 0.125000
vt 0.750000 0.187500
vt 0.312500 0.125000
vt 0.375000 0.187500
vt 0.312500 0.250000
vt 0.375000 0.312500
vt 0.250000 0.187500
vt 0.187500 0.125000
vt 0.187500 0.250000
vt 0.375000 0.437500
vt 0.125000 0.187500
vt 0.375000 0.562500
vt 0.562500 0.750000
vt 0.625000 0.812500
vt 0.812500 0.000000
vt 0.500000 0.812500
vt 0.812500 0.125000
vt 0.812500 0.250000
vt 0.625000 0.437500
vt 0.500000 0.437500
vt 0.312500 0.000000
vt 0.375000 0.937500
vt 0.375000 0.062500
vt 0.250000 0.062500
vt 0.625000 0.062500
vt 0.500000 0.062500
vt 0.750000 0.062500
vt 0.875000 0.062500
vt 0.625000 0.687500
vt 0.500000 0.687500
vt 0.187500 0.000000
vt 0.375000 0.812500
vt 0.125000 0.062500
vt 0.375000 0.687500
vt 0.437500 0.250000
vt 0.437500 0.375000
vt 0.437500 0.125000
vt 0.437500 0.000000
vt 0.437500 1.000000
vt 0.437500 0.875000
vt 0.437500 0.750000
vt 0.437500 0.625000
vt 0.437500 0.500000
vn -0.225688 0.730985 0.643992
vn -0.425982 0.603449 0.674083
vn -0.455828 0.188781 0.869818
vn -0.104672 0.316302 0.942866
vn -0.884057 0.276597 0.376744
vn -0.794023 -0.296063 0.530918
vn -0.605202 -0.476545 0.637680
vn -0.381284 -0.455640 0.804372
vn 0.111340 -0.246838 0.962639
vn -0.113419 -0.747149 0.654908
vn 0.163679 -0.730017 0.663539
vn -0.624374 -0.383242 0.680649
vn -0.517329 -0.626733 0.582732
vn 0.002481 -0.892390 0.451258
vn 0.155296 -0.924089 0.349202
vn 0.250417 -0.943911 -0.215231
vn 0.450365 -0.888534 -0.087629
vn 0.306282 -0.777912 -0.548676
vn 0.306547 -0.766962 -0.563736
vn -0.185171 -0.982431 0.023246
vn -0.482304 -0.686800 -0.543773
vn -0.382181 -0.293195 -0.876341
vn 0.059575 -0.340119 -0.938493
vn 0.105750 -0.403223 -0.908971
vn -0.173908 0.818668 -0.547302
vn -0.308449 0.786748 -0.534683
vn -0.336260 0.886402 -0.318153
vn -0.177532 0.921912 -0.344328
vn -0.757050 0.643514 -0.112981
vn -0.854902 0.517910 0.030179
vn -0.867237 0.476778 -0.143467
vn -0.298618 0.893383 0.335699
vn -0.175709 0.912448 0.369546
vn -0.892940 0.282866 0.350206
vn -0.638604 -0.182309 0.747628
vn -0.924933 0.183550 0.332878
vn -0.793020 -0.305099 0.527289
vn 0.950086 0.308549 0.046203
vn 0.829640 0.525490 0.188567
vn 0.976294 0.116895 0.182169
vn 0.893012 -0.449814 -0.014052
vn 0.550497 0.683541 0.479296
vn 0.570666 0.376610 0.729729
vn 0.274269 -0.014283 0.961547
vn 0.708006 -0.407441 0.576818
vn 0.763360 -0.592699 -0.256886
vn 0.669749 -0.556414 -0.491772
vn 0.933501 -0.209365 -0.291105
vn 0.245603 -0.915040 -0.319971
vn 0.453190 -0.885269 0.104485
vn 0.457258 -0.623397 -0.634264
vn 0.785169 -0.554275 -0.276204
vn -0.057341 0.165013 -0.984623
vn -0.245335 0.177653 -0.953022
vn -0.260996 0.467872 -0.844380
vn -0.156779 0.445085 -0.881657
vn -0.195325 0.112751 -0.974236
vn -0.462623 0.304894 -0.832478
vn -0.873584 -0.468786 0.130733
vn -0.394785 -0.806682 0.439784
vn -0.949616 -0.127246 -0.286422
vn 0.164112 -0.943295 -0.288552
vn 0.223018 -0.974272 -0.032509
vn 0.418287 0.843053 -0.338080
vn 0.456375 0.887240 -0.067275
vn 0.780224 0.567464 0.263124
vn 0.881987 0.466112 0.069556
vn 0.388444 0.756961 0.525473
vn 0.520027 0.740649 0.425454
vn -0.289825 0.653201 0.699522
vn -0.192659 0.796480 0.573150
vn -0.897382 0.315208 0.308789
vn -0.937187 0.242139 0.251096
vn -0.869858 0.376042 0.319280
vn -0.867873 -0.014691 -0.496570
vn -0.482222 0.025823 -0.875668
vn -0.051846 -0.157411 -0.986171
vn 0.024788 -0.225215 -0.973994
vn 0.156234 0.187407 -0.969778
vn 0.339756 0.559984 -0.755635
vn 0.942298 0.238496 -0.234935
vn 0.493489 -0.140941 -0.858256
vn 0.206955 -0.202076 0.957254
vn 0.240728 -0.728874 0.640931
vn 0.384400 -0.912746 0.138316
vn 0.129824 0.703084 0.699155
vn 0.264336 0.269142 0.926115
vn -0.058151 0.915562 0.397951
vn 0.078694 0.861845 0.501029
vn -0.069570 0.851668 -0.519444
vn -0.087993 0.934455 -0.345037
vn 0.081771 0.171415 -0.981800
vn 0.003578 0.622623 -0.782513
vn 0.305550 -0.554330 -0.774182
vn 0.140996 -0.268407 -0.952931
vn 0.687001 -0.674508 -0.270313
vn 0.647475 -0.742225 0.172856
vn 0.565541 -0.515905 -0.643432
s 1
g pCube16
usemtl lambert7SG
f 21/33/1 51/64/2 75/40/3 54/67/4
f 51/64/2 15/25/5 52/65/6 75/40/3
f 75/40/3 52/65/6 4/6/7 53/66/8
f 54/67/4 75/40/3 53/66/8 20/32/9
f 20/32/9 53/66/8 76/41/10 57/71/11
f 53/66/8 4/6/7 55/68/12 76/41/10
f 76/41/10 55/68/12 12/21/13 56/70/14
f 57/71/11 76/41/10 56/70/14 19/31/15
f 26/39/16 58/72/17 77/42/18 61/76/19
f 58/72/17 6/9/20 59/73/21 77/42/18
f 77/42/18 59/73/21 17/27/22 60/75/23
f 61/76/19 77/42/18 60/75/23 25/38/24
f 23/36/25 62/77/26 78/43/27 65/82/28
f 62/77/26 11/19/29 63/78/30 78/43/27
f 78/43/27 63/78/30 2/3/31 64/80/32
f 65/82/28 78/43/27 64/80/32 22/34/33
f 15/25/5 66/83/34 79/44/35 52/65/6
f 66/83/34 16/26/36 67/84/37 79/44/35
f 79/44/35 67/84/37 12/22/13 55/69/12
f 52/65/6 79/44/35 55/69/12 4/6/7
f 13/23/38 68/85/39 80/45/40 71/89/41
f 68/85/39 14/24/42 69/86/43 80/45/40
f 80/45/40 69/86/43 3/5/44 70/87/45
f 71/89/41 80/45/40 70/87/45 9/15/46
f 18/29/47 72/90/48 81/46/49 74/93/50
f 72/90/48 13/23/38 71/89/41 81/46/49
f 81/46/49 71/89/41 9/15/46 73/91/51
f 74/93/50 81/46/49 73/91/51 5/7/52
f 24/37/53 27/95/54 82/47/55 29/98/56
f 27/95/54 8/13/57 28/96/58 82/47/55
f 82/47/55 28/96/58 11/19/29 62/77/26
f 29/98/56 82/47/55 62/77/26 23/36/25
f 12/22/13 67/84/37 83/48/59 31/100/60
f 67/84/37 16/26/36 30/99/61 83/48/59
f 83/48/59 30/99/61 17/28/22 59/74/21
f 31/100/60 83/48/59 59/74/21 6/10/20
f 26/39/16 32/102/62 84/49/63 58/72/17
f 32/102/62 19/31/15 56/70/14 84/49/63
f 84/49/63 56/70/14 12/21/13 31/101/60
f 58/72/17 84/49/63 31/101/60 6/9/20
f 10/17/64 33/103/65 85/50/66 35/106/67
f 33/103/65 1/1/68 34/105/69 85/50/66
f 85/50/66 34/105/69 14/24/42 68/85/39
f 35/106/67 85/50/66 68/85/39 13/23/38
f 22/35/33 64/81/32 86/51/70 37/108/71
f 64/81/32 2/4/31 36/107/72 86/51/70
f 86/51/70 36/107/72 15/25/5 51/64/2
f 37/108/71 86/51/70 51/64/2 21/33/1
f 2/4/31 63/79/30 87/52/73 36/107/72
f 63/79/30 11/20/29 38/109/74 87/52/73
f 87/52/73 38/109/74 16/26/36 66/83/34
f 36/107/72 87/52/73 66/83/34 15/25/5
f 17/28/22 30/99/61 88/53/75 39/110/76
f 30/99/61 16/26/36 38/109/74 88/53/75
f 88/53/75 38/109/74 11/20/29 28/97/58
f 39/110/76 88/53/75 28/97/58 8/14/57
f 25/38/24 60/75/23 89/54/77 40/112/78
f 60/75/23 17/27/22 39/111/76 89/54/77
f 89/54/77 39/111/76 8/13/57 27/95/54
f 40/112/78 89/54/77 27/95/54 24/37/53
f 7/11/79 41/113/80 90/55/81 42/115/82
f 41/113/80 10/17/64 35/106/67 90/55/81
f 90/55/81 35/106/67 13/23/38 72/90/48
f 42/115/82 90/55/81 72/90/48 18/29/47
f 3/5/44 43/117/83 91/56/84 70/88/45
f 43/117/83 20/32/9 57/71/11 91/56/84
f 91/56/84 57/71/11 19/31/15 44/118/85
f 70/88/45 91/56/84 44/118/85 9/16/46
f 14/24/42 45/119/86 92/57/87 69/86/43
f 45/119/86 21/33/1 54/67/4 92/57/87
f 92/57/87 54/67/4 20/32/9 43/117/83
f 69/86/43 92/57/87 43/117/83 3/5/44
f 1/1/68 46/120/88 93/58/89 34/105/69
f 46/120/88 22/35/33 37/108/71 93/58/89
f 93/58/89 37/108/71 21/33/1 45/119/86
f 34/105/69 93/58/89 45/119/86 14/24/42
f 10/18/64 47/122/90 94/59/91 33/104/65
f 47/122/90 23/36/25 65/82/28 94/59/91
f 94/59/91 65/82/28 22/34/33 46/121/88
f 33/104/65 94/59/91 46/121/88 1/2/68
f 7/12/79 48/123/92 95/60/93 41/114/80
f 48/123/92 24/37/53 29/98/56 95/60/93
f 95/60/93 29/98/56 23/36/25 47/122/90
f 41/114/80 95/60/93 47/122/90 10/18/64
f 18/30/47 49/124/94 96/61/95 42/116/82
f 49/124/94 25/38/24 40/112/78 96/61/95
f 96/61/95 40/112/78 24/37/53 48/123/92
f 42/116/82 96/61/95 48/123/92 7/12/79
f 5/8/52 50/125/96 97/62/97 74/94/50
f 50/125/96 26/39/16 61/76/19 97/62/97
f 97/62/97 61/76/19 25/38/24 49/124/94
f 74/94/50 97/62/97 49/124/94 18/30/47
f 9/16/46 44/118/85 98/63/98 73/92/51
f 44/118/85 19/31/15 32/102/62 98/63/98
f 98/63/98 32/102/62 26/39/16 50/125/96
f 73/92/51 98/63/98 50/125/96 5/8/52
